# xmcd
#
# Track frame offsets:
#	150
#	13101
#	23894
#	35206
#	47694
#	64053
#	75054
#	88638
#	103390
#	116625
#	126540
#	134719
#	144560
#	161753
#	173999
#	183192
#	191827
#	206581
#	233689
#	244914
#	255456
#	265361
#	279935
#	292897
#	309190
#
# Disc length: 4299
#
# Revision: 2
# Processed by: cddbd v1.5.1PL0 Copyright (c) Steve Scherf et al.
# Submitted via: audiograbber 1.82.02
# Normalized: r1:DSETVAR1
#
DISCID=6d10c919
DTITLE=Various Artist - 50 Hits From The Kings Of Country CD 1 Of 2
DYEAR=1900
DGENRE=Country
TTITLE0=Merle Haggard - Swingin' Roses
TTITLE1=Faron Young - Riverboat
TTITLE2=Don Gibson - Just One Time
TTITLE3=Charlie Rich - Behind Closed Doors
TTITLE4=Moe Bandy - Cool Water
TTITLE5=Porter Wagoner - Eat, Drink and Be Merry
TTITLE6=Stonewall Jackson - DJ The DJ
TTITLE7=Johnny Paycheck - A Good Year For The Roses
TTITLE8=Ferlin Husky - Room Full Of Roses
TTITLE9=Ray Price - Make The World Go Away
TTITLE10=Roger Miller - In The Summertime
TTITLE11=Hank Locklin - Geisha Girl
TTITLE12=Ray Price - For The Good Times
TTITLE13=Merle Haggard - I Take A Lot Of Pride In What I Am
TTITLE14=Roger Miller - Chug-A-Lug
TTITLE15=Bill Phillips - Little Boy Sad
TTITLE16=Lee Green - Mornin' Ride
TTITLE17=Jimmy Dean - To A Sleeping Beauty
TTITLE18=Johnny Paycheck - Tender Years
TTITLE19=Hank Locklin - Let Me Be The One
TTITLE20=Claude King - The Comancheros
TTITLE21=Willie Nelson - Will You Remember Mine
TTITLE22=Charlie Rich - The Most Beautiful Girl
TTITLE23=Jim Ed Brown - Whispering Hope
TTITLE24=Ray Price - What A Friend We Have In Jesus
EXTD=
EXTT0=
EXTT1=
EXTT2=
EXTT3=
EXTT4=
EXTT5=
EXTT6=
EXTT7=
EXTT8=
EXTT9=
EXTT10=
EXTT11=
EXTT12=
EXTT13=
EXTT14=
EXTT15=
EXTT16=
EXTT17=
EXTT18=
EXTT19=
EXTT20=
EXTT21=
EXTT22=
EXTT23=
EXTT24=
PLAYORDER=
